# This file uses centimeters as units for non-parametric coordinates.

mtllib IceShard.mtl
g default
v 0.112172 0.108175 0.679750
v 0.182431 -0.000000 0.605649
v 0.158068 -0.155223 0.605649
v 0.104614 0.099664 -0.245374
v 0.133201 0.000000 -0.194873
v 0.100793 -0.092800 -0.258699
v 0.013877 0.013877 -0.500000
v 0.016605 0.000000 -0.500000
v 0.013877 -0.013877 -0.500000
v -0.000000 0.016605 -0.500000
v -0.000000 0.000000 -0.500000
v -0.000000 -0.016605 -0.500000
v -0.013877 0.013877 -0.500000
v -0.016605 0.000000 -0.500000
v -0.013877 -0.013877 -0.500000
v -0.111317 0.111317 -0.194873
v -0.133201 0.000000 -0.194873
v -0.086064 -0.093785 -0.194873
v -0.152459 0.152459 0.605649
v -0.182431 -0.000000 0.667329
v -0.152459 -0.152459 0.605649
v -0.000000 0.182431 0.605649
v -0.000000 -0.177447 0.568258
v -0.000000 -0.133201 -0.151498
v -0.000000 0.160430 -0.086390
v -0.023968 0.023968 0.854263
v -0.028680 -0.000000 0.854263
v -0.000000 -0.000000 0.854263
v -0.000000 0.028680 0.854263
v -0.023968 -0.023968 0.854263
v -0.000000 -0.028680 0.854263
v 0.028680 -0.000000 0.854263
v 0.023968 0.023968 0.854263
v 0.023968 -0.023968 0.854263
vt 0.375000 0.000000
vt 0.500000 0.000000
vt 0.625000 0.000000
vt 0.375000 0.125000
vt 0.500000 0.125000
vt 0.625000 0.125000
vt 0.375000 0.250000
vt 0.500000 0.250000
vt 0.625000 0.250000
vt 0.375000 0.375000
vt 0.500000 0.375000
vt 0.625000 0.375000
vt 0.375000 0.500000
vt 0.500000 0.500000
vt 0.625000 0.500000
vt 0.375000 0.625000
vt 0.500000 0.625000
vt 0.625000 0.625000
vt 0.375000 0.750000
vt 0.500000 0.750000
vt 0.625000 0.750000
vt 0.375000 0.875000
vt 0.500000 0.875000
vt 0.625000 0.875000
vt 0.375000 1.000000
vt 0.500000 1.000000
vt 0.625000 1.000000
vt 0.875000 0.000000
vt 0.750000 0.000000
vt 0.875000 0.125000
vt 0.750000 0.125000
vt 0.875000 0.250000
vt 0.750000 0.250000
vt 0.125000 0.000000
vt 0.250000 0.000000
vt 0.125000 0.125000
vt 0.250000 0.125000
vt 0.125000 0.250000
vt 0.250000 0.250000
vt 0.375000 0.750000
vt 0.500000 0.750000
vt 0.375000 0.875000
vt 0.625000 0.750000
vt 0.625000 0.875000
vt 0.500000 1.000000
vt 0.375000 1.000000
vt 0.625000 1.000000
vn 0.901209 0.432217 -0.031789
vn 0.986703 0.154086 -0.051727
vn 0.992658 0.091432 -0.079190
vn 0.925353 0.363489 -0.107695
vn 0.976163 -0.205388 -0.070148
vn 0.973891 -0.180965 -0.137072
vn 0.932749 0.006028 -0.360475
vn 0.928451 0.096529 -0.358694
vn 0.928845 -0.091084 -0.359096
vn -0.000000 0.000000 -1.000000
vn -0.000000 0.000000 -1.000000
vn -0.000000 0.000000 -1.000000
vn -0.000000 0.000000 -1.000000
vn -0.000000 0.000000 -1.000000
vn -0.000000 0.000000 -1.000000
vn -0.000000 0.000000 -1.000000
vn -0.000000 0.000000 -1.000000
vn -0.000000 0.000000 -1.000000
vn -0.918759 0.180622 -0.351080
vn -0.931078 -0.100972 -0.350568
vn -0.992537 -0.054598 -0.109037
vn -0.978713 0.180630 -0.097437
vn -0.860212 -0.398415 -0.318279
vn -0.948085 -0.298235 -0.110412
vn -0.996515 -0.047167 -0.068794
vn -0.982049 0.179544 -0.057819
vn -0.956814 -0.280472 -0.076434
vn 0.000004 -0.000006 1.000000
vn 0.000003 -0.000000 1.000000
vn -0.000001 -0.000000 1.000000
vn -0.000000 -0.000006 1.000000
vn 0.000003 0.000006 1.000000
vn -0.000001 0.000006 1.000000
vn -0.000005 -0.000000 1.000000
vn -0.000004 -0.000006 1.000000
vn -0.000005 0.000006 1.000000
vn -0.007511 -0.997002 -0.077015
vn -0.258124 -0.963080 -0.076472
vn -0.258662 -0.956997 -0.131340
vn 0.002240 -0.995540 -0.094318
vn 0.215771 -0.973684 -0.073367
vn 0.165112 -0.973933 -0.155541
vn -0.255060 -0.917857 -0.304110
vn -0.094402 -0.943701 -0.317042
vn 0.055005 -0.945318 -0.321479
vn -0.268655 0.962035 -0.048105
vn 0.196488 0.979912 -0.034128
vn 0.142816 0.988143 -0.056370
vn -0.208025 0.965318 -0.157754
vn 0.523354 0.851914 -0.018519
vn 0.325406 0.930547 -0.167910
vn -0.025080 0.943153 -0.331412
vn -0.103492 0.938606 -0.329101
vn 0.059587 0.941532 -0.331611
vn -0.736753 0.347601 0.579973
vn -0.736753 0.347601 0.579973
vn -0.736753 0.347601 0.579973
vn -0.736753 0.347601 0.579973
vn -0.164913 0.838854 0.518775
vn -0.164913 0.838854 0.518775
vn -0.164913 0.838854 0.518775
vn -0.164913 0.838854 0.518775
vn -0.736753 -0.347601 0.579973
vn -0.736753 -0.347601 0.579973
vn -0.736753 -0.347601 0.579973
vn -0.736753 -0.347601 0.579973
vn -0.049027 -0.881790 0.469087
vn -0.049027 -0.881790 0.469086
vn -0.049027 -0.881790 0.469086
vn -0.049027 -0.881790 0.469087
vn 0.836624 0.185668 0.515352
vn 0.836624 0.185668 0.515352
vn 0.836624 0.185668 0.515352
vn 0.836624 0.185668 0.515352
vn 0.205235 0.834168 0.511900
vn 0.205235 0.834168 0.511901
vn 0.205235 0.834168 0.511901
vn 0.205235 0.834168 0.511901
vn 0.033865 -0.881818 0.470372
vn 0.033865 -0.881818 0.470372
vn 0.033865 -0.881818 0.470372
vn 0.033865 -0.881818 0.470372
vn 0.841290 -0.136506 0.523066
vn 0.841290 -0.136506 0.523066
vn 0.841290 -0.136506 0.523066
vn 0.841290 -0.136506 0.523066
s 1
g pCube1
usemtl initialShadingGroup
f 1/1/1 2/2/2 5/5/3 4/4/4
f 2/2/2 3/3/5 6/6/6 5/5/3
f 4/4/4 5/5/3 8/8/7 7/7/8
f 5/5/3 6/6/6 9/9/9 8/8/7
s 2
f 7/7/10 8/8/11 11/11/12 10/10/13
f 8/8/11 9/9/14 12/12/15 11/11/12
f 10/10/13 11/11/12 14/14/16 13/13/17
f 11/11/12 12/12/15 15/15/18 14/14/16
s 3
f 13/13/19 14/14/20 17/17/21 16/16/22
f 14/14/20 15/15/23 18/18/24 17/17/21
f 16/16/22 17/17/21 20/20/25 19/19/26
f 17/17/21 18/18/24 21/21/27 20/20/25
s 4
f 26/40/28 27/41/29 28/23/30 29/42/31
f 27/41/29 30/43/32 31/44/33 28/23/30
f 29/42/31 28/23/30 32/45/34 33/46/35
f 28/23/30 31/44/33 34/47/36 32/45/34
s 5
f 23/29/37 21/28/38 18/30/39 24/31/40
f 3/3/41 23/29/37 24/31/40 6/6/42
f 24/31/40 18/30/39 15/32/43 12/33/44
f 6/6/42 24/31/40 12/33/44 9/9/45
s 6
f 19/34/46 22/35/47 25/37/48 16/36/49
f 22/35/47 1/1/50 4/4/51 25/37/48
f 16/36/49 25/37/48 10/39/52 13/38/53
f 25/37/48 4/4/51 7/7/54 10/39/52
s off
f 19/19/55 20/20/56 27/41/57 26/40/58
f 22/22/59 19/19/60 26/40/61 29/42/62
f 20/20/63 21/21/64 30/43/65 27/41/66
f 21/21/67 23/24/68 31/44/69 30/43/70
f 2/26/71 1/25/72 33/46/73 32/45/74
f 1/25/75 22/22/76 29/42/77 33/46/78
f 23/24/79 3/27/80 34/47/81 31/44/82
f 3/27/83 2/26/84 32/45/85 34/47/86
