# This file uses centimeters as units for non-parametric coordinates.

mtllib wave.mtl
g default
v 2.830784 -0.205209 -0.448351
v 2.725795 -0.205209 -0.885664
v 2.553687 -0.205209 -1.301168
v 2.318700 -0.205209 -1.684633
v 2.026618 -0.205209 -2.026617
v 1.684634 -0.205209 -2.318699
v 1.301169 -0.205209 -2.553687
v 0.885665 -0.205209 -2.725794
v 0.448353 -0.205209 -2.830784
v 0.000001 -0.205209 -2.866070
v -0.448351 -0.205209 -2.830784
v -0.885664 -0.205209 -2.725794
v -1.301168 -0.205209 -2.553687
v -1.684633 -0.205209 -2.318699
v -2.026617 -0.205209 -2.026618
v -2.318699 -0.205209 -1.684634
v -2.553686 -0.205209 -1.301169
v -2.725794 -0.205209 -0.885665
v -2.830783 -0.205209 -0.448353
v -2.866069 -0.205209 -0.000000
v -2.830783 -0.205209 0.448352
v -2.725794 -0.205209 0.885664
v -2.553687 -0.205209 1.301168
v -2.318699 -0.205209 1.684633
v -2.026617 -0.205209 2.026616
v -1.684633 -0.205209 2.318698
v -1.301168 -0.205209 2.553686
v -0.885664 -0.205209 2.725794
v -0.448352 -0.205209 2.830783
v -0.000000 -0.205209 2.866069
v 0.448352 -0.205209 2.830783
v 0.885664 -0.205209 2.725794
v 1.301168 -0.205209 2.553686
v 1.684633 -0.205209 2.318699
v 2.026616 -0.205209 2.026617
v 2.318698 -0.205209 1.684633
v 2.553686 -0.205209 1.301168
v 2.725793 -0.205209 0.885664
v 2.830782 -0.205209 0.448352
v 2.866068 -0.205209 0.000000
v 2.830784 0.205209 -0.448351
v 2.725795 0.205209 -0.885664
v 2.553687 0.205209 -1.301168
v 2.318700 0.205209 -1.684633
v 2.026618 0.205209 -2.026617
v 1.684634 0.205209 -2.318699
v 1.301169 0.205209 -2.553687
v 0.885665 0.205209 -2.725794
v 0.448353 0.205209 -2.830784
v 0.000001 0.205209 -2.866070
v -0.448351 0.205209 -2.830784
v -0.885664 0.205209 -2.725794
v -1.301168 0.205209 -2.553687
v -1.684633 0.205209 -2.318699
v -2.026617 0.205209 -2.026618
v -2.318699 0.205209 -1.684634
v -2.553686 0.205209 -1.301169
v -2.725794 0.205209 -0.885665
v -2.830783 0.205209 -0.448353
v -2.866069 0.205209 -0.000000
v -2.830783 0.205209 0.448352
v -2.725794 0.205209 0.885664
v -2.553687 0.205209 1.301168
v -2.318699 0.205209 1.684633
v -2.026617 0.205209 2.026616
v -1.684633 0.205209 2.318698
v -1.301168 0.205209 2.553686
v -0.885664 0.205209 2.725794
v -0.448352 0.205209 2.830783
v -0.000000 0.205209 2.866069
v 0.448352 0.205209 2.830783
v 0.885664 0.205209 2.725794
v 1.301168 0.205209 2.553686
v 1.684633 0.205209 2.318699
v 2.026616 0.205209 2.026617
v 2.318698 0.205209 1.684633
v 2.553686 0.205209 1.301168
v 2.725793 0.205209 0.885664
v 2.830782 0.205209 0.448352
v 2.866068 0.205209 0.000000
vt 0.375000 0.312500
vt 0.381250 0.312500
vt 0.387500 0.312500
vt 0.393750 0.312500
vt 0.400000 0.312500
vt 0.406250 0.312500
vt 0.412500 0.312500
vt 0.418750 0.312500
vt 0.425000 0.312500
vt 0.431250 0.312500
vt 0.437500 0.312500
vt 0.443750 0.312500
vt 0.450000 0.312500
vt 0.456250 0.312500
vt 0.462500 0.312500
vt 0.468750 0.312500
vt 0.475000 0.312500
vt 0.481250 0.312500
vt 0.487500 0.312500
vt 0.493750 0.312500
vt 0.500000 0.312500
vt 0.506250 0.312500
vt 0.512500 0.312500
vt 0.518750 0.312500
vt 0.525000 0.312500
vt 0.531250 0.312500
vt 0.537500 0.312500
vt 0.543750 0.312500
vt 0.550000 0.312500
vt 0.556250 0.312500
vt 0.562500 0.312500
vt 0.568750 0.312500
vt 0.575000 0.312500
vt 0.581250 0.312500
vt 0.587500 0.312500
vt 0.593750 0.312500
vt 0.600000 0.312500
vt 0.606250 0.312500
vt 0.612500 0.312500
vt 0.618750 0.312500
vt 0.625000 0.312500
vt 0.375000 0.688440
vt 0.381250 0.688440
vt 0.387500 0.688440
vt 0.393750 0.688440
vt 0.400000 0.688440
vt 0.406250 0.688440
vt 0.412500 0.688440
vt 0.418750 0.688440
vt 0.425000 0.688440
vt 0.431250 0.688440
vt 0.437500 0.688440
vt 0.443750 0.688440
vt 0.450000 0.688440
vt 0.456250 0.688440
vt 0.462500 0.688440
vt 0.468750 0.688440
vt 0.475000 0.688440
vt 0.481250 0.688440
vt 0.487500 0.688440
vt 0.493750 0.688440
vt 0.500000 0.688440
vt 0.506250 0.688440
vt 0.512500 0.688440
vt 0.518750 0.688440
vt 0.525000 0.688440
vt 0.531250 0.688440
vt 0.537500 0.688440
vt 0.543750 0.688440
vt 0.550000 0.688440
vt 0.556250 0.688440
vt 0.562500 0.688440
vt 0.568750 0.688440
vt 0.575000 0.688440
vt 0.581250 0.688440
vt 0.587500 0.688440
vt 0.593750 0.688440
vt 0.600000 0.688440
vt 0.606250 0.688440
vt 0.612500 0.688440
vt 0.618750 0.688440
vt 0.625000 0.688440
vn 0.987689 0.000000 -0.156432
vn 0.951057 0.000000 -0.309017
vn 0.951057 0.000000 -0.309017
vn 0.987689 0.000000 -0.156432
vn 0.891007 0.000000 -0.453990
vn 0.891007 0.000000 -0.453990
vn 0.809017 0.000000 -0.587785
vn 0.809017 0.000000 -0.587785
vn 0.707107 0.000000 -0.707107
vn 0.707107 0.000000 -0.707107
vn 0.587785 0.000000 -0.809017
vn 0.587785 0.000000 -0.809017
vn 0.453991 0.000000 -0.891006
vn 0.453991 0.000000 -0.891006
vn 0.309017 0.000000 -0.951056
vn 0.309017 0.000000 -0.951056
vn 0.156435 0.000000 -0.987688
vn 0.156435 0.000000 -0.987688
vn 0.000000 0.000000 -1.000000
vn 0.000000 0.000000 -1.000000
vn -0.156434 0.000000 -0.987688
vn -0.156434 0.000000 -0.987688
vn -0.309017 0.000000 -0.951057
vn -0.309017 0.000000 -0.951057
vn -0.453990 0.000000 -0.891007
vn -0.453990 0.000000 -0.891007
vn -0.587785 0.000000 -0.809017
vn -0.587785 0.000000 -0.809017
vn -0.707107 0.000000 -0.707107
vn -0.707107 0.000000 -0.707107
vn -0.809017 0.000000 -0.587785
vn -0.809017 0.000000 -0.587785
vn -0.891006 0.000000 -0.453991
vn -0.891006 0.000000 -0.453991
vn -0.951056 0.000000 -0.309017
vn -0.951056 0.000000 -0.309017
vn -0.987688 0.000000 -0.156434
vn -0.987688 0.000000 -0.156434
vn -1.000000 0.000000 0.000000
vn -1.000000 0.000000 0.000000
vn -0.987688 0.000000 0.156434
vn -0.987688 0.000000 0.156434
vn -0.951056 0.000000 0.309017
vn -0.951056 0.000000 0.309017
vn -0.891007 0.000000 0.453990
vn -0.891007 0.000000 0.453990
vn -0.809017 0.000000 0.587785
vn -0.809017 0.000000 0.587785
vn -0.707107 0.000000 0.707107
vn -0.707107 0.000000 0.707107
vn -0.587785 0.000000 0.809017
vn -0.587785 0.000000 0.809017
vn -0.453991 0.000000 0.891006
vn -0.453991 0.000000 0.891006
vn -0.309017 0.000000 0.951056
vn -0.309017 0.000000 0.951056
vn -0.156434 0.000000 0.987688
vn -0.156434 0.000000 0.987688
vn -0.000000 0.000000 1.000000
vn -0.000000 0.000000 1.000000
vn 0.156434 0.000000 0.987688
vn 0.156434 0.000000 0.987688
vn 0.309017 0.000000 0.951057
vn 0.309017 0.000000 0.951057
vn 0.453990 0.000000 0.891007
vn 0.453990 0.000000 0.891007
vn 0.587785 0.000000 0.809017
vn 0.587785 0.000000 0.809017
vn 0.707107 0.000000 0.707107
vn 0.707107 0.000000 0.707107
vn 0.809017 0.000000 0.587785
vn 0.809017 0.000000 0.587785
vn 0.891007 0.000000 0.453990
vn 0.891007 0.000000 0.453990
vn 0.951057 0.000000 0.309017
vn 0.951057 0.000000 0.309017
vn 0.987688 0.000000 0.156434
vn 0.987688 0.000000 0.156434
vn 1.000000 0.000000 0.000002
vn 1.000000 0.000000 0.000002
s 1
g pCylinder1
usemtl initialShadingGroup
f 1/1/1 2/2/2 42/43/3 41/42/4
f 2/2/2 3/3/5 43/44/6 42/43/3
f 3/3/5 4/4/7 44/45/8 43/44/6
f 4/4/7 5/5/9 45/46/10 44/45/8
f 5/5/9 6/6/11 46/47/12 45/46/10
f 6/6/11 7/7/13 47/48/14 46/47/12
f 7/7/13 8/8/15 48/49/16 47/48/14
f 8/8/15 9/9/17 49/50/18 48/49/16
f 9/9/17 10/10/19 50/51/20 49/50/18
f 10/10/19 11/11/21 51/52/22 50/51/20
f 11/11/21 12/12/23 52/53/24 51/52/22
f 12/12/23 13/13/25 53/54/26 52/53/24
f 13/13/25 14/14/27 54/55/28 53/54/26
f 14/14/27 15/15/29 55/56/30 54/55/28
f 15/15/29 16/16/31 56/57/32 55/56/30
f 16/16/31 17/17/33 57/58/34 56/57/32
f 17/17/33 18/18/35 58/59/36 57/58/34
f 18/18/35 19/19/37 59/60/38 58/59/36
f 19/19/37 20/20/39 60/61/40 59/60/38
f 20/20/39 21/21/41 61/62/42 60/61/40
f 21/21/41 22/22/43 62/63/44 61/62/42
f 22/22/43 23/23/45 63/64/46 62/63/44
f 23/23/45 24/24/47 64/65/48 63/64/46
f 24/24/47 25/25/49 65/66/50 64/65/48
f 25/25/49 26/26/51 66/67/52 65/66/50
f 26/26/51 27/27/53 67/68/54 66/67/52
f 27/27/53 28/28/55 68/69/56 67/68/54
f 28/28/55 29/29/57 69/70/58 68/69/56
f 29/29/57 30/30/59 70/71/60 69/70/58
f 30/30/59 31/31/61 71/72/62 70/71/60
f 31/31/61 32/32/63 72/73/64 71/72/62
f 32/32/63 33/33/65 73/74/66 72/73/64
f 33/33/65 34/34/67 74/75/68 73/74/66
f 34/34/67 35/35/69 75/76/70 74/75/68
f 35/35/69 36/36/71 76/77/72 75/76/70
f 36/36/71 37/37/73 77/78/74 76/77/72
f 37/37/73 38/38/75 78/79/76 77/78/74
f 38/38/75 39/39/77 79/80/78 78/79/76
f 39/39/77 40/40/79 80/81/80 79/80/78
f 40/40/79 1/41/1 41/82/4 80/81/80
